<mxfile host="app.diagrams.net" agent="Mozilla/5.0 (Windows NT 10.0; Win64; x64) AppleWebKit/537.36 (KHTML, like Gecko) Chrome/135.0.0.0 Safari/537.36 OPR/120.0.0.0" version="28.1.2">
  <diagram id="nN61hk7_czwu90_221V0" name="Pagina-1">
    <mxGraphModel dx="3477" dy="1299" grid="1" gridSize="10" guides="1" tooltips="1" connect="1" arrows="1" fold="1" page="0" pageScale="1" pageWidth="827" pageHeight="1169" background="none" math="0" shadow="0">
      <root>
        <mxCell id="0" />
        <mxCell id="1" parent="0" />
        <mxCell id="gVMh9HHa-c9kzkF-Kuyq-1" value="&lt;font style=&quot;font-size: 14px;&quot;&gt;mapper&lt;/font&gt;" style="shape=folder;fontStyle=1;tabWidth=110;tabHeight=30;tabPosition=left;html=1;boundedLbl=1;labelInHeader=1;container=1;collapsible=0;recursiveResize=0;whiteSpace=wrap;" vertex="1" parent="1">
          <mxGeometry x="-870" width="2060" height="920" as="geometry" />
        </mxCell>
        <mxCell id="node0" value="&lt;p style=&quot;margin:0px;margin-top:4px;text-align:center;&quot;&gt;&lt;b&gt;CarriageDepotMapper&lt;/b&gt;&lt;/p&gt;&lt;hr size=&quot;1&quot;/&gt;&lt;p style=&quot;margin:0 0 0 4px;line-height:1.6;&quot;&gt;+ toPreparedStatementForUpdateStatusAndExitTime(PreparedStatement, String, Timestamp, int, int): void&lt;br/&gt;+ toPreparedStatementForFindAvailableCarriageTypesForConvoy(PreparedStatement, int): void&lt;br/&gt;+ toPreparedStatementForFindAvailableCarriagesForConvoy(PreparedStatement, int, String): void&lt;br/&gt;+ toPreparedStatementForFindAvailableCarriageModelsForConvoy(PreparedStatement, int, String): void&lt;br/&gt;+ toPreparedStatement(PreparedStatement, CarriageDepot): void&lt;br/&gt;+ toCarriageDepotDTO(ResultSet): CarriageDepotDTO&lt;br/&gt;+ toDomain(ResultSet): CarriageDepot&lt;br/&gt;+ toPreparedStatementForGetCarriagesByConvoyPosition(PreparedStatement, int): void&lt;/p&gt;" style="verticalAlign=top;align=left;overflow=fill;fontSize=14;fontFamily=Helvetica;html=1;rounded=0;shadow=0;comic=0;labelBackgroundColor=none;strokeWidth=1;fillColor=#f5f5f5;fontColor=#333333;strokeColor=#666666;" parent="1" vertex="1">
          <mxGeometry x="-855" y="63" width="474" height="231" as="geometry" />
        </mxCell>
        <mxCell id="node2" value="&lt;p style=&quot;margin:0px;margin-top:4px;text-align:center;&quot;&gt;&lt;b&gt;CarriageMapper&lt;/b&gt;&lt;/p&gt;&lt;hr size=&quot;1&quot;/&gt;&lt;p style=&quot;margin:0 0 0 4px;line-height:1.6;&quot;&gt;+ toDomain(ResultSet): Carriage&lt;/p&gt;" style="verticalAlign=top;align=left;overflow=fill;fontSize=14;fontFamily=Helvetica;html=1;rounded=0;shadow=0;comic=0;labelBackgroundColor=none;strokeWidth=1;fillColor=#f5f5f5;fontColor=#333333;strokeColor=#666666;" parent="1" vertex="1">
          <mxGeometry x="-203" y="63" width="233" height="68" as="geometry" />
        </mxCell>
        <mxCell id="node7" value="&lt;p style=&quot;margin:0px;margin-top:4px;text-align:center;&quot;&gt;&lt;b&gt;ConvoyMapper&lt;/b&gt;&lt;/p&gt;&lt;hr size=&quot;1&quot;/&gt;&lt;p style=&quot;margin:0 0 0 4px;line-height:1.6;&quot;&gt;+ toPreparedStatementForSelectAssignedConvoysRowsByStaff(PreparedStatement, int): void&lt;br/&gt;+ getConvoyId(ResultSet): int&lt;br/&gt;+ toConvoyAssignedRow(ResultSet): ConvoyAssignedRow&lt;br/&gt;+ toConvoyListForNewRun(ResultSet): List&amp;lt;Convoy&amp;gt;&lt;br/&gt;+ toPreparedStatementForSelectConvoyDetailsById(PreparedStatement, int): void&lt;br/&gt;+ setConvoyAndCarriageId(PreparedStatement, int, Carriage): void&lt;br/&gt;+ toCarriageList(ResultSet): List&amp;lt;Carriage&amp;gt;&lt;br/&gt;+ toConvoyDetailsRaw(ResultSet, int): ConvoyDetailsRaw&lt;br/&gt;+ toDomain(ResultSet, List&amp;lt;Carriage&amp;gt;): Convoy&lt;br/&gt;+ toStationRow(ResultSet): StationRow?&lt;br/&gt;+ toPreparedStatementForSelectConvoy(PreparedStatement, int): void&lt;br/&gt;+ setConvoyId(PreparedStatement, int): void&lt;br/&gt;+ setCarriageId(PreparedStatement, Carriage): void&lt;br/&gt;+ toPreparedStatementForConvoyId(PreparedStatement, int): void&lt;br/&gt;+ toPreparedStatementForRemoveCarriageFromConvoy(PreparedStatement, Carriage): void&lt;br/&gt;+ toPreparedStatementForGetConvoysForNewRun(PreparedStatement, int, Timestamp, int): void&lt;br/&gt;+ setConvoysForNewRunParams(PreparedStatement, int, Timestamp, int): void&lt;br/&gt;+ toPreparedStatementForUpdateCarriageConvoy(PreparedStatement, int, Carriage): void&lt;br/&gt;+ setStaffId(PreparedStatement, int): void&lt;br/&gt;+ setAddCarriagesToConvoyParams(PreparedStatement, int, List&amp;lt;Carriage&amp;gt;): void&lt;br/&gt;+ toPreparedStatementForAddCarriagesToConvoy(PreparedStatement, int, List&amp;lt;Carriage&amp;gt;): void&lt;/p&gt;" style="verticalAlign=top;align=left;overflow=fill;fontSize=14;fontFamily=Helvetica;html=1;rounded=0;shadow=0;comic=0;labelBackgroundColor=none;strokeWidth=1;fillColor=#f5f5f5;fontColor=#333333;strokeColor=#666666;" parent="1" vertex="1">
          <mxGeometry x="-330" y="195" width="487" height="543" as="geometry" />
        </mxCell>
        <mxCell id="node1" value="&lt;p style=&quot;margin:0px;margin-top:4px;text-align:center;&quot;&gt;&lt;b&gt;ConvoyPoolMapper&lt;/b&gt;&lt;/p&gt;&lt;hr size=&quot;1&quot;/&gt;&lt;p style=&quot;margin:0 0 0 4px;line-height:1.6;&quot;&gt;+ setCheckConvoyStatus(PreparedStatement, int): void&lt;br/&gt;+ toDomain(ResultSet): ConvoyPool&lt;br/&gt;+ toConvoyTableDTO(ResultSet): ConvoyTableDTO&lt;br/&gt;+ setIdStation(PreparedStatement, int): void&lt;br/&gt;+ setInsertConvoyPool(PreparedStatement, ConvoyPool): void&lt;br/&gt;+ setIdConvoy(PreparedStatement, int): void&lt;/p&gt;" style="verticalAlign=top;align=left;overflow=fill;fontSize=14;fontFamily=Helvetica;html=1;rounded=0;shadow=0;comic=0;labelBackgroundColor=none;strokeWidth=1;fillColor=#f5f5f5;fontColor=#333333;strokeColor=#666666;" parent="1" vertex="1">
          <mxGeometry x="230" y="63" width="422" height="183" as="geometry" />
        </mxCell>
        <mxCell id="node10" value="&lt;p style=&quot;margin:0px;margin-top:4px;text-align:center;&quot;&gt;&lt;b&gt;DepotMapper&lt;/b&gt;&lt;/p&gt;&lt;hr size=&quot;1&quot;/&gt;&lt;p style=&quot;margin:0 0 0 4px;line-height:1.6;&quot;&gt;+ setIdDepot(PreparedStatement, int): void&lt;br/&gt;+ toDomain(ResultSet): Depot&lt;/p&gt;" style="verticalAlign=top;align=left;overflow=fill;fontSize=14;fontFamily=Helvetica;html=1;rounded=0;shadow=0;comic=0;labelBackgroundColor=none;strokeWidth=1;fillColor=#f5f5f5;fontColor=#333333;strokeColor=#666666;" parent="1" vertex="1">
          <mxGeometry x="803" y="71" width="303" height="94" as="geometry" />
        </mxCell>
        <mxCell id="node11" value="&lt;p style=&quot;margin:0px;margin-top:4px;text-align:center;&quot;&gt;&lt;b&gt;LineMapper&lt;/b&gt;&lt;/p&gt;&lt;hr size=&quot;1&quot;/&gt;&lt;p style=&quot;margin:0 0 0 4px;line-height:1.6;&quot;&gt;+ toDomain(ResultSet): Line&lt;/p&gt;" style="verticalAlign=top;align=left;overflow=fill;fontSize=14;fontFamily=Helvetica;html=1;rounded=0;shadow=0;comic=0;labelBackgroundColor=none;strokeWidth=1;fillColor=#f5f5f5;fontColor=#333333;strokeColor=#666666;" parent="1" vertex="1">
          <mxGeometry x="-855" y="361" width="207" height="68" as="geometry" />
        </mxCell>
        <mxCell id="node5" value="&lt;p style=&quot;margin:0px;margin-top:4px;text-align:center;&quot;&gt;&lt;b&gt;LineStationMapper&lt;/b&gt;&lt;/p&gt;&lt;hr size=&quot;1&quot;/&gt;&lt;p style=&quot;margin:0 0 0 4px;line-height:1.6;&quot;&gt;+ parseDurationFromPgInterval(String): Duration&lt;br/&gt;+ setIdLine(PreparedStatement, int): void&lt;br/&gt;+ setFindTimeTableForRunParams(PreparedStatement, int, int): void&lt;br/&gt;+ toDomain(ResultSet): LineStation&lt;/p&gt;" style="verticalAlign=top;align=left;overflow=fill;fontSize=14;fontFamily=Helvetica;html=1;rounded=0;shadow=0;comic=0;labelBackgroundColor=none;strokeWidth=1;fillColor=#f5f5f5;fontColor=#333333;strokeColor=#666666;" parent="1" vertex="1">
          <mxGeometry x="-863" y="464" width="459" height="146" as="geometry" />
        </mxCell>
        <mxCell id="node4" value="&lt;p style=&quot;margin:0px;margin-top:4px;text-align:center;&quot;&gt;&lt;b&gt;NotificationMapper&lt;/b&gt;&lt;/p&gt;&lt;hr size=&quot;1&quot;/&gt;&lt;p style=&quot;margin:0 0 0 4px;line-height:1.6;&quot;&gt;+ setExistsNotificationOrHistoryParams(PreparedStatement, int, int, String): void&lt;br/&gt;+ setInsertNotificationHistoryParams(PreparedStatement, int, int, Timestamp, String, int, String, String, String): void&lt;br/&gt;+ toDomain(ResultSet): Notification&lt;br/&gt;+ setAddNotificationParams(PreparedStatement, int, int, Timestamp, String, int): void&lt;br/&gt;+ setNotificationsByConvoyIdParams(PreparedStatement, int): void&lt;br/&gt;+ setDeleteNotificationParams(PreparedStatement, int, int, Timestamp): void&lt;br/&gt;+ setAllNotificationsForConvoyAndStaffParams(PreparedStatement, int, int): void&lt;/p&gt;" style="verticalAlign=top;align=left;overflow=fill;fontSize=14;fontFamily=Helvetica;html=1;rounded=0;shadow=0;comic=0;labelBackgroundColor=none;strokeWidth=1;fillColor=#f5f5f5;fontColor=#333333;strokeColor=#666666;" parent="1" vertex="1">
          <mxGeometry x="230" y="308" width="459" height="207" as="geometry" />
        </mxCell>
        <mxCell id="node3" value="&lt;p style=&quot;margin:0px;margin-top:4px;text-align:center;&quot;&gt;&lt;b&gt;RunMapper&lt;/b&gt;&lt;/p&gt;&lt;hr size=&quot;1&quot;/&gt;&lt;p style=&quot;margin:0 0 0 4px;line-height:1.6;&quot;&gt;+ setIdParam(PreparedStatement, int): void&lt;br/&gt;+ setRunKeyParams(PreparedStatement, int, int, int, Timestamp, int): void&lt;br/&gt;+ setRunDeleteKeyParams(PreparedStatement, int, int, int, Timestamp): void&lt;br/&gt;+ setIdAndTimestampParams(PreparedStatement, int, Timestamp): void&lt;br/&gt;+ setUpdateRunStaffParams(PreparedStatement, int, int, int, int, Timestamp): void&lt;br/&gt;+ setReplaceFutureRunsWithTimeParams(PreparedStatement, int, int, Timestamp, int, int): void&lt;br/&gt;+ setUpdateRunDepartureTimeParams(PreparedStatement, Timestamp, int, int, int, Timestamp): void&lt;br/&gt;+ toRunDTO(ResultSet): RunDTO&lt;br/&gt;+ setReplaceFutureRunsParams(PreparedStatement, int, int): void&lt;br/&gt;+ setInsertRunParams(PreparedStatement, int, int, int, Timestamp, Timestamp, int, int): void&lt;br/&gt;+ toDomain(ResultSet): Run&lt;br/&gt;+ toConvoyTableDTO(ResultSet): ConvoyTableDTO&lt;/p&gt;" style="verticalAlign=top;align=left;overflow=fill;fontSize=14;fontFamily=Helvetica;html=1;rounded=0;shadow=0;comic=0;labelBackgroundColor=none;strokeWidth=1;fillColor=#f5f5f5;fontColor=#333333;strokeColor=#666666;" parent="1" vertex="1">
          <mxGeometry x="220" y="576" width="479" height="327" as="geometry" />
        </mxCell>
        <mxCell id="node6" value="&lt;p style=&quot;margin:0px;margin-top:4px;text-align:center;&quot;&gt;&lt;b&gt;StaffMapper&lt;/b&gt;&lt;/p&gt;&lt;hr size=&quot;1&quot;/&gt;&lt;p style=&quot;margin:0 0 0 4px;line-height:1.6;&quot;&gt;+ setTypeOfStaff(PreparedStatement, TypeOfStaff): void&lt;br/&gt;+ toDomain(ResultSet): Staff&lt;br/&gt;+ setEmail(PreparedStatement, String): void&lt;/p&gt;" style="verticalAlign=top;align=left;overflow=fill;fontSize=14;fontFamily=Helvetica;html=1;rounded=0;shadow=0;comic=0;labelBackgroundColor=none;strokeWidth=1;fillColor=#f5f5f5;fontColor=#333333;strokeColor=#666666;" parent="1" vertex="1">
          <mxGeometry x="759" y="241" width="390" height="120" as="geometry" />
        </mxCell>
        <mxCell id="node8" value="&lt;p style=&quot;margin:0px;margin-top:4px;text-align:center;&quot;&gt;&lt;b&gt;StaffPoolMapper&lt;/b&gt;&lt;/p&gt;&lt;hr size=&quot;1&quot;/&gt;&lt;p style=&quot;margin:0 0 0 4px;line-height:1.6;&quot;&gt;+ toStaffDTO(ResultSet): StaffDTO&lt;br/&gt;+ toDomain(ResultSet): StaffPool&lt;br/&gt;+ setFindAvailableOperatorsParams(PreparedStatement, int, LocalDate, Timestamp): void&lt;/p&gt;" style="verticalAlign=top;align=left;overflow=fill;fontSize=14;fontFamily=Helvetica;html=1;rounded=0;shadow=0;comic=0;labelBackgroundColor=none;strokeWidth=1;fillColor=#f5f5f5;fontColor=#333333;strokeColor=#666666;" parent="1" vertex="1">
          <mxGeometry x="725" y="415" width="459" height="120" as="geometry" />
        </mxCell>
        <mxCell id="node9" value="&lt;p style=&quot;margin:0px;margin-top:4px;text-align:center;&quot;&gt;&lt;b&gt;StationMapper&lt;/b&gt;&lt;/p&gt;&lt;hr size=&quot;1&quot;/&gt;&lt;p style=&quot;margin:0 0 0 4px;line-height:1.6;&quot;&gt;+ toDomain(ResultSet): Station&lt;/p&gt;" style="verticalAlign=top;align=left;overflow=fill;fontSize=14;fontFamily=Helvetica;html=1;rounded=0;shadow=0;comic=0;labelBackgroundColor=none;strokeWidth=1;fillColor=#f5f5f5;fontColor=#333333;strokeColor=#666666;" parent="1" vertex="1">
          <mxGeometry x="-619" y="361" width="225" height="68" as="geometry" />
        </mxCell>
        <mxCell id="edge0" value="" style="html=1;rounded=1;edgeStyle=orthogonalEdgeStyle;dashed=1;startArrow=none;endArrow=openThin;endSize=12;strokeColor=#595959;exitX=0.500;exitY=0.000;exitDx=0;exitDy=0;entryX=0.500;entryY=1.001;entryDx=0;entryDy=0;" parent="1" source="node7" target="node2" edge="1">
          <mxGeometry width="50" height="50" relative="1" as="geometry">
            <Array as="points" />
          </mxGeometry>
        </mxCell>
      </root>
    </mxGraphModel>
  </diagram>
</mxfile>
